<?xml version="1.0" standalone="no"?><!DOCTYPE svg PUBLIC "-//W3C//DTD SVG 1.1//EN" "http://www.w3.org/Graphics/SVG/1.1/DTD/svg11.dtd"><svg class="icon" height="512" viewBox="0 0 1024 1024" version="1.1" xmlns="http://www.w3.org/2000/svg"><path d="M658.4 484.58c-40.37 35.742-88.081 51.951-146.393 51.951-58.313 0-106.227-16.657-146.801-52.4-63.614 20.818-139.665 73.83-139.665 166.416l-0.204 172.715c-0.204 31.766 25.486 57.354 57.293 57.354h458.753c31.807 0 57.293-25.588 57.293-57.354V651.219c0-79.517-63.206-146.556-140.276-166.639z m25.69-177.425c0 95.013-77.07 172.042-172.083 172.042s-172.084-77.03-172.084-172.042c0-94.992 77.07-172.022 172.084-172.022 95.012 0 172.083 77.03 172.083 172.022z" /></svg>